<svg width="600" height="400" viewBox="0 0 600 400" fill="none" xmlns="http://www.w3.org/2000/svg">
<g id="smartphone-for-podcast 1" clip-path="url(#clip0_1_7)">
<g id="bg_1_">
<g id="Group">
<path id="Vector" d="M502.883 361.104C478.702 368.935 452.672 368.996 427.197 368.967C340.028 368.869 252.858 368.328 165.69 368.672C97.659 368.94 67.427 349.94 55.215 334.065C38.24 312 34.479 278.935 48.328 254.785C78.521 202.132 130.83 219.547 127.823 172.63C124.745 124.615 130.337 98.077 150.348 78.79C182.72 47.589 218.974 55.607 256.411 68.538C310.05 87.066 315.573 47.647 377.912 48.548C394.919 48.794 409.774 59.551 419.774 73.309C449.179 113.766 455.423 167.788 445.412 216.79C443.841 224.481 441.931 232.657 444.743 239.985C449.716 252.945 467.01 257.943 480.396 254.268C544.566 236.649 564.9 280.42 559.222 306.262C553.544 332.104 530.638 351.393 505.675 360.161C504.747 360.487 503.816 360.801 502.883 361.104Z" fill="#FFF8E6"/>
<g id="Group_2">
<g id="Clip path group">
<mask id="mask0_1_7" style="mask-type:luminance" maskUnits="userSpaceOnUse" x="44" y="64" width="506" height="326">
<g id="SVGID_00000005960847054561990450000009433465500110992056_">
<path id="Vector_2" d="M445.101 387.689C422.078 395.145 413.339 369.93 413.339 369.93C330.348 369.836 247.356 369.322 164.365 369.649C99.595 369.904 70.812 351.815 59.185 336.701C43.024 315.694 39.443 284.213 52.628 261.221C81.374 211.091 101.197 217.551 98.333 172.882C95.403 127.168 130.706 112.023 149.758 93.66C180.579 63.954 215.095 71.588 250.738 83.899C301.806 101.539 307.064 64.009 366.416 64.867C382.608 65.101 396.751 75.342 406.272 88.441C434.268 126.959 498.316 118.32 488.785 164.974C487.289 172.296 504.33 186.523 507.008 193.5C511.743 205.838 497.071 224.169 509.815 220.67C570.909 203.896 544.443 285.627 539.038 310.23C533.633 334.833 511.824 353.198 488.057 361.546C487.173 361.857 445.99 387.401 445.101 387.689Z" fill="white"/>
</g>
</mask>
<g mask="url(#mask0_1_7)">
</g>
</g>
<g id="leaf-3">
<mask id="mask1_1_7" style="mask-type:luminance" maskUnits="userSpaceOnUse" x="44" y="64" width="506" height="326">
<g id="SVGID_00000005960847054561990450000009433465500110992056__2">
<path id="Vector_3" d="M445.101 387.689C422.078 395.145 413.339 369.93 413.339 369.93C330.348 369.836 247.356 369.322 164.365 369.649C99.595 369.904 70.812 351.815 59.185 336.701C43.024 315.694 39.443 284.213 52.628 261.221C81.374 211.091 101.197 217.551 98.333 172.882C95.403 127.168 130.706 112.023 149.758 93.66C180.579 63.954 215.095 71.588 250.738 83.899C301.806 101.539 307.064 64.009 366.416 64.867C382.608 65.101 396.751 75.342 406.272 88.441C434.268 126.959 498.316 118.32 488.785 164.974C487.289 172.296 504.33 186.523 507.008 193.5C511.743 205.838 497.071 224.169 509.815 220.67C570.909 203.896 544.443 285.627 539.038 310.23C533.633 334.833 511.824 353.198 488.057 361.546C487.173 361.857 445.99 387.401 445.101 387.689Z" fill="white"/>
</g>
</mask>
<g mask="url(#mask1_1_7)">
<g id="Group_3">
<path id="Vector_4" d="M295.613 346.416C296.148 346.429 296.681 346.408 297.213 346.354C299.313 346.272 301.378 346.158 303.441 345.978C303.542 346.008 303.643 346.004 303.741 345.966C304.708 345.928 305.673 345.857 306.637 345.753C307.459 342.015 308.282 338.277 309.172 334.57C310.045 331.264 310.851 327.961 311.622 324.626C313.199 317.987 314.676 311.353 316.456 304.773C316.864 303.255 317.304 301.702 317.746 300.182C322.387 281.372 327.803 262.732 333.862 244.334C336.369 236.724 338.978 229.144 341.722 221.592C352.202 192.438 364.239 163.791 377.403 135.835C381.195 127.775 385.055 119.745 388.915 111.716C391.013 107.294 397.447 95.091 387.454 100.789C385.625 101.828 384.035 102.992 383.587 103.511C362.643 128.032 346.382 156.209 333.72 185.915L333.721 185.948C326.344 203.095 320.19 220.763 315.006 238.492C311.084 251.765 307.602 265.222 304.827 278.785C304.02 282.923 303.554 287.214 302.781 291.384C302.45 293.166 302.052 294.951 301.552 296.673L299.963 305.582C299.642 307.631 299.422 309.676 299.169 311.756C299.039 312.696 298.942 313.634 298.811 314.574C298.409 317.962 297.972 321.317 297.57 324.705C297.238 327.322 296.938 329.904 296.673 332.519C296.497 333.995 296.354 335.469 296.211 336.944C296.212 336.977 296.214 337.011 296.214 337.011C295.935 340.127 295.791 343.271 295.613 346.416Z" fill="#F6DDB1"/>
</g>
</g>
</g>
<g id="Clip path group_2">
<mask id="mask2_1_7" style="mask-type:luminance" maskUnits="userSpaceOnUse" x="44" y="64" width="506" height="326">
<g id="SVGID_00000005960847054561990450000009433465500110992056__3">
<path id="Vector_5" d="M445.101 387.689C422.078 395.145 413.339 369.93 413.339 369.93C330.348 369.836 247.356 369.322 164.365 369.649C99.595 369.904 70.812 351.815 59.185 336.701C43.024 315.694 39.443 284.213 52.628 261.221C81.374 211.091 101.197 217.551 98.333 172.882C95.403 127.168 130.706 112.023 149.758 93.66C180.579 63.954 215.095 71.588 250.738 83.899C301.806 101.539 307.064 64.009 366.416 64.867C382.608 65.101 396.751 75.342 406.272 88.441C434.268 126.959 498.316 118.32 488.785 164.974C487.289 172.296 504.33 186.523 507.008 193.5C511.743 205.838 497.071 224.169 509.815 220.67C570.909 203.896 544.443 285.627 539.038 310.23C533.633 334.833 511.824 353.198 488.057 361.546C487.173 361.857 445.99 387.401 445.101 387.689Z" fill="white"/>
</g>
</mask>
<g mask="url(#mask2_1_7)">
<g id="Group_4">
<path id="Vector_6" d="M282.728 224.389C286.385 231.332 289.824 239.572 292.978 249.329C294.002 252.46 294.978 255.726 295.929 259.198C297.613 265.394 299.316 271.78 300.902 278.247C306.217 299.61 310.733 322.006 313.246 342.211C314.638 353.031 315.379 363.259 315.412 372.327C315.37 382.679 314.377 391.602 312.129 398.382C309.477 399.411 306.77 400.42 304.05 401.394C303.933 401.475 303.803 401.522 303.661 401.533C303.285 401.707 302.853 401.862 302.465 402.001L300.738 402.62C299.961 402.898 299.141 403.192 298.351 403.436C297.673 403.718 296.982 403.966 296.279 404.178C293.559 405.152 290.87 406.077 288.156 406.931C288.039 407.012 287.909 407.059 287.767 407.07C286.515 407.519 285.25 407.932 283.973 408.311L283.628 408.435C277.007 404.912 269.668 399.248 261.996 391.974C252.173 382.641 241.797 370.677 231.88 357.408C222.639 345.076 213.82 331.611 206.138 318.052C203.347 313.117 200.711 308.206 198.272 303.302C195.224 297.241 192.484 291.226 190.104 285.398C185.966 275.208 183.172 266.186 181.55 258.121L181.538 258.086C177.286 236.971 180.952 222.727 188.469 212.842C178.974 198.44 171.663 178.578 169.95 159.383C166.551 121.612 187.287 83.763 208.358 80.027C229.471 76.275 250.323 107.282 253.721 145.053C255.093 160.44 253.166 177.362 248.972 192.306C260.786 195.777 272.578 205.033 282.728 224.389Z" fill="#C9B8D9"/>
</g>
</g>
</g>
<g id="Clip path group_3">
<mask id="mask3_1_7" style="mask-type:luminance" maskUnits="userSpaceOnUse" x="44" y="64" width="506" height="326">
<g id="SVGID_00000005960847054561990450000009433465500110992056__4">
<path id="Vector_7" d="M445.101 387.689C422.078 395.145 413.339 369.93 413.339 369.93C330.348 369.836 247.356 369.322 164.365 369.649C99.595 369.904 70.812 351.815 59.185 336.701C43.024 315.694 39.443 284.213 52.628 261.221C81.374 211.091 101.197 217.551 98.333 172.882C95.403 127.168 130.706 112.023 149.758 93.66C180.579 63.954 215.095 71.588 250.738 83.899C301.806 101.539 307.064 64.009 366.416 64.867C382.608 65.101 396.751 75.342 406.272 88.441C434.268 126.959 498.316 118.32 488.785 164.974C487.289 172.296 504.33 186.523 507.008 193.5C511.743 205.838 497.071 224.169 509.815 220.67C570.909 203.896 544.443 285.627 539.038 310.23C533.633 334.833 511.824 353.198 488.057 361.546C487.173 361.857 445.99 387.401 445.101 387.689Z" fill="white"/>
</g>
</mask>
<g mask="url(#mask3_1_7)">
<g id="Group_5">
<path id="Vector_8" d="M297.307 404.066C297.21 404.066 297.113 404.026 297.043 403.949C277.88 382.879 250.468 343.519 228.7 275.663C193.182 164.818 207.854 81.788 208.006 80.962C208.042 80.768 208.225 80.639 208.422 80.676C208.616 80.712 208.744 80.898 208.708 81.092C208.556 81.916 193.92 164.782 229.379 275.444C251.108 343.179 278.455 382.451 297.57 403.469C297.703 403.614 297.692 403.841 297.546 403.973C297.479 404.035 297.393 404.066 297.307 404.066Z" fill="#6A5087"/>
</g>
</g>
</g>
<g id="Clip path group_4">
<mask id="mask4_1_7" style="mask-type:luminance" maskUnits="userSpaceOnUse" x="44" y="64" width="506" height="326">
<g id="SVGID_00000005960847054561990450000009433465500110992056__5">
<path id="Vector_9" d="M445.101 387.689C422.078 395.145 413.339 369.93 413.339 369.93C330.348 369.836 247.356 369.322 164.365 369.649C99.595 369.904 70.812 351.815 59.185 336.701C43.024 315.694 39.443 284.213 52.628 261.221C81.374 211.091 101.197 217.551 98.333 172.882C95.403 127.168 130.706 112.023 149.758 93.66C180.579 63.954 215.095 71.588 250.738 83.899C301.806 101.539 307.064 64.009 366.416 64.867C382.608 65.101 396.751 75.342 406.272 88.441C434.268 126.959 498.316 118.32 488.785 164.974C487.289 172.296 504.33 186.523 507.008 193.5C511.743 205.838 497.071 224.169 509.815 220.67C570.909 203.896 544.443 285.627 539.038 310.23C533.633 334.833 511.824 353.198 488.057 361.546C487.173 361.857 445.99 387.401 445.101 387.689Z" fill="white"/>
</g>
</mask>
<g mask="url(#mask4_1_7)">
<g id="Group_6">
<path id="Vector_10" d="M305.066 349.412C305.342 349.441 305.612 349.379 305.886 349.362C306.618 349.363 307.346 349.318 308.072 349.228C310.941 349.052 313.762 348.834 316.578 348.525C316.718 348.562 316.854 348.554 316.988 348.5C318.309 348.419 319.627 348.293 320.942 348.121L321.307 348.099C324.897 347.742 328.392 347.345 331.794 346.909C334.266 339.489 336.652 329.926 340.022 319.25C348.665 291.657 363.569 256.55 401.866 230.937C409.375 225.906 415.949 220.52 421.598 214.963C451.871 185.223 455.166 150.918 435.645 140.455C417.873 130.937 391.418 146.865 365.164 177.272C362.219 180.698 359.24 184.309 356.272 188.102C351.228 194.582 346.258 201.515 341.361 208.901C329.058 227.483 319.887 250.948 314.022 273.891C311.925 282.202 310.232 290.398 308.978 298.292C308.525 301.337 307.642 310.077 306.855 319.634C305.923 331.302 305.067 344.2 305.066 349.412Z" fill="#C9B8D9"/>
</g>
</g>
</g>
<g id="Clip path group_5">
<mask id="mask5_1_7" style="mask-type:luminance" maskUnits="userSpaceOnUse" x="44" y="64" width="506" height="326">
<g id="SVGID_00000005960847054561990450000009433465500110992056__6">
<path id="Vector_11" d="M445.101 387.689C422.078 395.145 413.339 369.93 413.339 369.93C330.348 369.836 247.356 369.322 164.365 369.649C99.595 369.904 70.812 351.815 59.185 336.701C43.024 315.694 39.443 284.213 52.628 261.221C81.374 211.091 101.197 217.551 98.333 172.882C95.403 127.168 130.706 112.023 149.758 93.66C180.579 63.954 215.095 71.588 250.738 83.899C301.806 101.539 307.064 64.009 366.416 64.867C382.608 65.101 396.751 75.342 406.272 88.441C434.268 126.959 498.316 118.32 488.785 164.974C487.289 172.296 504.33 186.523 507.008 193.5C511.743 205.838 497.071 224.169 509.815 220.67C570.909 203.896 544.443 285.627 539.038 310.23C533.633 334.833 511.824 353.198 488.057 361.546C487.173 361.857 445.99 387.401 445.101 387.689Z" fill="white"/>
</g>
</mask>
<g mask="url(#mask5_1_7)">
<g id="Group_7">
<path id="Vector_12" d="M303.384 349.935C303.209 349.935 303.053 349.812 303.017 349.634C302.968 349.398 298.383 325.335 313.648 271.347C335.714 193.306 386.039 155.705 386.544 155.335C386.709 155.213 386.944 155.248 387.069 155.416C387.191 155.583 387.155 155.818 386.988 155.94C386.484 156.31 336.362 193.772 314.371 271.551C299.165 325.329 303.705 349.251 303.752 349.486C303.793 349.688 303.662 349.886 303.459 349.927C303.434 349.933 303.408 349.935 303.384 349.935Z" fill="#6A5087"/>
</g>
</g>
</g>
<g id="leaf-2">
<mask id="mask6_1_7" style="mask-type:luminance" maskUnits="userSpaceOnUse" x="44" y="64" width="506" height="326">
<g id="SVGID_00000005960847054561990450000009433465500110992056__7">
<path id="Vector_13" d="M445.101 387.689C422.078 395.145 413.339 369.93 413.339 369.93C330.348 369.836 247.356 369.322 164.365 369.649C99.595 369.904 70.812 351.815 59.185 336.701C43.024 315.694 39.443 284.213 52.628 261.221C81.374 211.091 101.197 217.551 98.333 172.882C95.403 127.168 130.706 112.023 149.758 93.66C180.579 63.954 215.095 71.588 250.738 83.899C301.806 101.539 307.064 64.009 366.416 64.867C382.608 65.101 396.751 75.342 406.272 88.441C434.268 126.959 498.316 118.32 488.785 164.974C487.289 172.296 504.33 186.523 507.008 193.5C511.743 205.838 497.071 224.169 509.815 220.67C570.909 203.896 544.443 285.627 539.038 310.23C533.633 334.833 511.824 353.198 488.057 361.546C487.173 361.857 445.99 387.401 445.101 387.689Z" fill="white"/>
</g>
</mask>
<g mask="url(#mask6_1_7)">
<g id="Group_8">
<path id="Vector_14" d="M274.044 366.518C273.608 366.706 273.161 366.866 272.705 366.998C270.947 367.628 269.207 368.219 267.448 368.756C267.374 368.814 267.29 368.844 267.197 368.846C266.388 369.136 265.569 369.398 264.74 369.632C262.821 366.825 260.903 364.018 258.938 361.259C257.121 358.825 255.361 356.37 253.618 353.878C250.114 348.931 246.694 343.955 243.043 339.124C242.203 338.008 241.324 336.875 240.456 335.769C230.386 321.81 219.735 308.248 208.634 295.099C204.042 289.661 199.375 284.281 194.607 278.969C176.292 258.425 156.863 238.815 136.733 220.149C130.932 214.766 125.086 209.431 119.239 204.096C116.042 201.149 106.689 193.229 116.815 194.607C118.667 194.856 120.364 195.287 120.905 195.566C146.305 208.818 169.059 226.638 189.356 246.913L189.366 246.941C201.138 258.622 212.075 271.137 222.233 284.026C229.872 293.661 237.208 303.594 243.999 313.849C246.037 316.991 247.847 320.372 249.868 323.552C250.732 324.911 251.653 326.25 252.637 327.502L256.904 334.316C257.848 335.898 258.709 337.51 259.608 339.14C260.027 339.871 260.419 340.612 260.838 341.344C262.294 344.002 263.768 346.622 265.224 349.28C266.366 351.326 267.471 353.355 268.557 355.421C269.192 356.579 269.799 357.746 270.407 358.914C270.417 358.942 270.427 358.97 270.427 358.97C271.69 361.443 272.853 363.986 274.044 366.518Z" fill="#F6DDB1"/>
</g>
</g>
</g>
<g id="Clip path group_6">
<mask id="mask7_1_7" style="mask-type:luminance" maskUnits="userSpaceOnUse" x="44" y="64" width="506" height="326">
<g id="SVGID_00000005960847054561990450000009433465500110992056__8">
<path id="Vector_15" d="M445.101 387.689C422.078 395.145 413.339 369.93 413.339 369.93C330.348 369.836 247.356 369.322 164.365 369.649C99.595 369.904 70.812 351.815 59.185 336.701C43.024 315.694 39.443 284.213 52.628 261.221C81.374 211.091 101.197 217.551 98.333 172.882C95.403 127.168 130.706 112.023 149.758 93.66C180.579 63.954 215.095 71.588 250.738 83.899C301.806 101.539 307.064 64.009 366.416 64.867C382.608 65.101 396.751 75.342 406.272 88.441C434.268 126.959 498.316 118.32 488.785 164.974C487.289 172.296 504.33 186.523 507.008 193.5C511.743 205.838 497.071 224.169 509.815 220.67C570.909 203.896 544.443 285.627 539.038 310.23C533.633 334.833 511.824 353.198 488.057 361.546C487.173 361.857 445.99 387.401 445.101 387.689Z" fill="white"/>
</g>
</mask>
<g mask="url(#mask7_1_7)">
<g id="Group_9">
<path id="Vector_16" d="M274.669 366.288C274.472 366.398 274.251 366.438 274.042 366.513C273.497 366.748 272.94 366.947 272.37 367.112C270.176 367.898 268.068 368.914 265.871 369.583C265.779 369.655 265.61 369.416 265.493 369.418C264.483 369.78 263.46 370.107 262.425 370.399L262.146 370.499C259.357 371.38 256.625 372.202 253.95 372.964C249.737 368.224 244.902 361.86 238.979 354.982C223.72 337.182 201.393 315.782 164.668 308.934C157.464 307.585 150.844 305.672 144.859 303.336C112.795 290.849 99.376 266.337 110.579 252.3C120.781 239.527 145.586 242.942 174.869 257.212C178.158 258.824 181.533 260.563 184.957 262.441C190.787 265.658 196.706 269.237 202.716 273.175C217.823 283.091 232.156 297.647 243.859 312.869C248.078 318.393 251.959 323.959 255.416 329.441C256.727 331.565 260.178 337.796 263.818 344.667C268.242 353.066 273.002 362.405 274.669 366.288Z" fill="#C9B8D9"/>
</g>
</g>
</g>
<g id="Clip path group_7">
<mask id="mask8_1_7" style="mask-type:luminance" maskUnits="userSpaceOnUse" x="44" y="64" width="506" height="326">
<g id="SVGID_00000005960847054561990450000009433465500110992056__9">
<path id="Vector_17" d="M445.101 387.689C422.078 395.145 413.339 369.93 413.339 369.93C330.348 369.836 247.356 369.322 164.365 369.649C99.595 369.904 70.812 351.815 59.185 336.701C43.024 315.694 39.443 284.213 52.628 261.221C81.374 211.091 101.197 217.551 98.333 172.882C95.403 127.168 130.706 112.023 149.758 93.66C180.579 63.954 215.095 71.588 250.738 83.899C301.806 101.539 307.064 64.009 366.416 64.867C382.608 65.101 396.751 75.342 406.272 88.441C434.268 126.959 498.316 118.32 488.785 164.974C487.289 172.296 504.33 186.523 507.008 193.5C511.743 205.838 497.071 224.169 509.815 220.67C570.909 203.896 544.443 285.627 539.038 310.23C533.633 334.833 511.824 353.198 488.057 361.546C487.173 361.857 445.99 387.401 445.101 387.689Z" fill="white"/>
</g>
</mask>
<g mask="url(#mask8_1_7)">
<path id="Vector_18" d="M469.874 345.476C468.655 364.736 454.693 384.587 439.786 383.644C424.879 382.701 414.672 361.319 415.891 342.059C417.11 322.799 430.183 307.95 445.09 308.894C459.997 309.837 471.093 326.216 469.874 345.476Z" fill="#6A5087"/>
</g>
</g>
<g id="Clip path group_8">
<mask id="mask9_1_7" style="mask-type:luminance" maskUnits="userSpaceOnUse" x="44" y="64" width="506" height="326">
<g id="SVGID_00000005960847054561990450000009433465500110992056__10">
<path id="Vector_19" d="M445.101 387.689C422.078 395.145 413.339 369.93 413.339 369.93C330.348 369.836 247.356 369.322 164.365 369.649C99.595 369.904 70.812 351.815 59.185 336.701C43.024 315.694 39.443 284.213 52.628 261.221C81.374 211.091 101.197 217.551 98.333 172.882C95.403 127.168 130.706 112.023 149.758 93.66C180.579 63.954 215.095 71.588 250.738 83.899C301.806 101.539 307.064 64.009 366.416 64.867C382.608 65.101 396.751 75.342 406.272 88.441C434.268 126.959 498.316 118.32 488.785 164.974C487.289 172.296 504.33 186.523 507.008 193.5C511.743 205.838 497.071 224.169 509.815 220.67C570.909 203.896 544.443 285.627 539.038 310.23C533.633 334.833 511.824 353.198 488.057 361.546C487.173 361.857 445.99 387.401 445.101 387.689Z" fill="white"/>
</g>
</mask>
<g mask="url(#mask9_1_7)">
<g id="Group_10">
<path id="Vector_20" d="M450.931 235.844C450.228 236.148 449.494 236.405 448.792 236.709C452.335 251.993 447.129 278.857 414.092 290.319C392.225 297.911 375.394 308.905 362.371 320.97C346.156 335.983 335.753 352.702 328.621 366.689C323.856 375.999 320.533 384.105 317.867 389.688C316.026 389.447 314.2 389.127 312.336 388.801C309.922 388.406 307.477 387.965 305.04 387.486C304.961 387.069 304.844 386.644 304.765 386.226C304.71 385.894 304.624 385.515 304.576 385.144C303.388 378.521 303.253 370.015 304.177 361.236C305.079 352.774 307 344.03 309.977 336.458C317.373 317.66 325.984 299.222 336.64 282.03C345.996 266.953 357.01 253.047 369.731 240.681C371.728 238.703 373.755 236.771 375.853 234.893C383.333 228.127 391.129 221.383 399.338 215.202C412.476 205.209 426.677 196.551 442.226 191.252C453.21 187.506 485.018 178.615 491.655 194.307C496.498 205.63 478.245 224.26 450.931 235.844Z" fill="#CDD8F7"/>
</g>
</g>
</g>
<g id="Clip path group_9">
<mask id="mask10_1_7" style="mask-type:luminance" maskUnits="userSpaceOnUse" x="44" y="64" width="506" height="326">
<g id="SVGID_00000005960847054561990450000009433465500110992056__11">
<path id="Vector_21" d="M445.101 387.689C422.078 395.145 413.339 369.93 413.339 369.93C330.348 369.836 247.356 369.322 164.365 369.649C99.595 369.904 70.812 351.815 59.185 336.701C43.024 315.694 39.443 284.213 52.628 261.221C81.374 211.091 101.197 217.551 98.333 172.882C95.403 127.168 130.706 112.023 149.758 93.66C180.579 63.954 215.095 71.588 250.738 83.899C301.806 101.539 307.064 64.009 366.416 64.867C382.608 65.101 396.751 75.342 406.272 88.441C434.268 126.959 498.316 118.32 488.785 164.974C487.289 172.296 504.33 186.523 507.008 193.5C511.743 205.838 497.071 224.169 509.815 220.67C570.909 203.896 544.443 285.627 539.038 310.23C533.633 334.833 511.824 353.198 488.057 361.546C487.173 361.857 445.99 387.401 445.101 387.689Z" fill="white"/>
</g>
</mask>
<g mask="url(#mask10_1_7)">
<g id="Group_11">
<path id="Vector_22" d="M444.764 266.037C444.699 266.037 444.635 266.019 444.576 265.983C444.408 265.88 444.356 265.66 444.46 265.492C446.923 261.493 451.808 246.526 448.215 236.517C446.687 232.257 443.802 229.375 439.643 227.953C423.298 222.36 407.751 233.23 407.597 233.341C407.439 233.455 407.215 233.418 407.099 233.257C406.985 233.097 407.022 232.873 407.183 232.759C407.341 232.647 423.182 221.567 439.873 227.277C444.249 228.774 447.281 231.802 448.887 236.276C452.56 246.508 447.58 261.787 445.068 265.867C445 265.977 444.883 266.037 444.764 266.037Z" fill="#6A5087"/>
</g>
</g>
</g>
<g id="leaf-1">
<mask id="mask11_1_7" style="mask-type:luminance" maskUnits="userSpaceOnUse" x="44" y="64" width="506" height="326">
<g id="SVGID_00000005960847054561990450000009433465500110992056__12">
<path id="Vector_23" d="M445.101 387.689C422.078 395.145 413.339 369.93 413.339 369.93C330.348 369.836 247.356 369.322 164.365 369.649C99.595 369.904 70.812 351.815 59.185 336.701C43.024 315.694 39.443 284.213 52.628 261.221C81.374 211.091 101.197 217.551 98.333 172.882C95.403 127.168 130.706 112.023 149.758 93.66C180.579 63.954 215.095 71.588 250.738 83.899C301.806 101.539 307.064 64.009 366.416 64.867C382.608 65.101 396.751 75.342 406.272 88.441C434.268 126.959 498.316 118.32 488.785 164.974C487.289 172.296 504.33 186.523 507.008 193.5C511.743 205.838 497.071 224.169 509.815 220.67C570.909 203.896 544.443 285.627 539.038 310.23C533.633 334.833 511.824 353.198 488.057 361.546C487.173 361.857 445.99 387.401 445.101 387.689Z" fill="white"/>
</g>
</mask>
<g mask="url(#mask11_1_7)">
<g id="Group_12">
<path id="Vector_24" d="M517.997 259.601C515.616 261.073 511.356 261.207 509.453 261.512C495.983 263.455 482.945 267.419 470.252 272.229C466.277 273.678 462.331 275.248 458.436 276.865C449.167 280.662 439.98 284.725 430.927 289.152C425.879 291.541 420.859 294.052 415.89 296.61C411.887 298.697 407.885 300.833 403.908 302.992C394.991 307.831 386.18 312.961 377.397 318.164C368.718 323.559 359.936 328.811 351.311 334.401C346.865 337.212 342.445 340.096 338 342.957C337.305 343.445 336.584 343.908 335.839 344.397C331.012 347.564 326.16 350.755 321.309 353.947C321.022 354.152 320.685 354.359 320.397 354.564C319.82 354.925 319.268 355.31 318.692 355.672L317.682 354.723C317.227 354.296 316.748 353.845 316.317 353.393C315.889 353.039 315.485 352.659 315.105 352.254C313.514 350.76 311.972 349.264 310.477 347.718C310.377 347.672 310.301 347.601 310.25 347.504C310.726 347.048 311.226 346.566 311.701 346.11C316.604 341.446 321.659 336.924 326.814 332.497C330.202 329.547 333.641 326.645 337.13 323.79C337.872 323.203 338.564 322.617 339.282 322.056C339.951 321.496 340.619 320.935 341.313 320.399C357.791 307.307 375.232 295.263 393.601 284.612C411.945 273.986 431.414 264.795 452.055 258.607C452.322 258.525 452.638 258.442 452.905 258.36C473.039 252.408 494.149 249.466 514.949 253.029C516.995 253.381 519.911 254.932 519.571 257.369C519.453 258.354 518.838 259.06 517.997 259.601Z" fill="#F6DDB1"/>
</g>
</g>
</g>
<g id="Clip path group_10">
<mask id="mask12_1_7" style="mask-type:luminance" maskUnits="userSpaceOnUse" x="44" y="64" width="506" height="326">
<g id="SVGID_00000005960847054561990450000009433465500110992056__13">
<path id="Vector_25" d="M445.101 387.689C422.078 395.145 413.339 369.93 413.339 369.93C330.348 369.836 247.356 369.322 164.365 369.649C99.595 369.904 70.812 351.815 59.185 336.701C43.024 315.694 39.443 284.213 52.628 261.221C81.374 211.091 101.197 217.551 98.333 172.882C95.403 127.168 130.706 112.023 149.758 93.66C180.579 63.954 215.095 71.588 250.738 83.899C301.806 101.539 307.064 64.009 366.416 64.867C382.608 65.101 396.751 75.342 406.272 88.441C434.268 126.959 498.316 118.32 488.785 164.974C487.289 172.296 504.33 186.523 507.008 193.5C511.743 205.838 497.071 224.169 509.815 220.67C570.909 203.896 544.443 285.627 539.038 310.23C533.633 334.833 511.824 353.198 488.057 361.546C487.173 361.857 445.99 387.401 445.101 387.689Z" fill="white"/>
</g>
</mask>
<g mask="url(#mask12_1_7)">
<path id="Vector_26" d="M178.065 311.554C185.159 321.304 179.127 341.68 163.061 353.369C146.996 365.058 126.98 363.632 119.886 353.883C112.792 344.134 120.066 326.754 136.131 315.065C152.197 303.376 170.971 301.804 178.065 311.554Z" fill="#6A5087"/>
</g>
</g>
<g id="Clip path group_11">
<mask id="mask13_1_7" style="mask-type:luminance" maskUnits="userSpaceOnUse" x="44" y="64" width="506" height="326">
<g id="SVGID_00000005960847054561990450000009433465500110992056__14">
<path id="Vector_27" d="M445.101 387.689C422.078 395.145 413.339 369.93 413.339 369.93C330.348 369.836 247.356 369.322 164.365 369.649C99.595 369.904 70.812 351.815 59.185 336.701C43.024 315.694 39.443 284.213 52.628 261.221C81.374 211.091 101.197 217.551 98.333 172.882C95.403 127.168 130.706 112.023 149.758 93.66C180.579 63.954 215.095 71.588 250.738 83.899C301.806 101.539 307.064 64.009 366.416 64.867C382.608 65.101 396.751 75.342 406.272 88.441C434.268 126.959 498.316 118.32 488.785 164.974C487.289 172.296 504.33 186.523 507.008 193.5C511.743 205.838 497.071 224.169 509.815 220.67C570.909 203.896 544.443 285.627 539.038 310.23C533.633 334.833 511.824 353.198 488.057 361.546C487.173 361.857 445.99 387.401 445.101 387.689Z" fill="white"/>
</g>
</mask>
<g mask="url(#mask13_1_7)">
<g id="Group_13">
<path id="Vector_28" d="M461.719 370.005C461.719 370.005 455.252 301.412 384.628 356.535C376.25 363.093 368.141 368.245 360.508 372.2C359.171 372.936 357.852 373.602 356.554 374.197C356.509 374.223 356.474 374.213 356.474 374.213C348.432 376.047 330.32 374.199 308.614 369.251C306.926 368.906 305.257 368.491 303.553 368.066C301.345 367.542 299.111 366.973 296.887 366.369C296.771 366.376 296.666 366.347 296.569 366.283C296.594 365.911 296.655 365.548 296.716 365.185C296.818 364.53 296.965 363.85 297.157 363.144C298.426 358.333 301.43 352.855 305.968 347.036C306.506 346.31 307.134 345.533 307.753 344.791C313.893 337.398 322.314 329.563 332.555 322.146C339.112 317.406 346.429 312.797 354.325 308.573C355.034 308.197 355.752 307.785 356.496 307.419C419.155 274.776 501.15 306.902 461.719 370.005Z" fill="#C9B8D9"/>
</g>
</g>
</g>
<g id="Clip path group_12">
<mask id="mask14_1_7" style="mask-type:luminance" maskUnits="userSpaceOnUse" x="44" y="64" width="506" height="326">
<g id="SVGID_00000005960847054561990450000009433465500110992056__15">
<path id="Vector_29" d="M445.101 387.689C422.078 395.145 413.339 369.93 413.339 369.93C330.348 369.836 247.356 369.322 164.365 369.649C99.595 369.904 70.812 351.815 59.185 336.701C43.024 315.694 39.443 284.213 52.628 261.221C81.374 211.091 101.197 217.551 98.333 172.882C95.403 127.168 130.706 112.023 149.758 93.66C180.579 63.954 215.095 71.588 250.738 83.899C301.806 101.539 307.064 64.009 366.416 64.867C382.608 65.101 396.751 75.342 406.272 88.441C434.268 126.959 498.316 118.32 488.785 164.974C487.289 172.296 504.33 186.523 507.008 193.5C511.743 205.838 497.071 224.169 509.815 220.67C570.909 203.896 544.443 285.627 539.038 310.23C533.633 334.833 511.824 353.198 488.057 361.546C487.173 361.857 445.99 387.401 445.101 387.689Z" fill="white"/>
</g>
</mask>
<g mask="url(#mask14_1_7)">
<g id="Group_14">
<path id="Vector_30" d="M266.031 369.802C265.939 369.874 265.61 369.784 265.493 369.786C264.483 370.148 263.46 370.107 262.425 370.399L262.146 370.499C259.357 371.38 256.625 372.202 253.95 372.964C244.064 375.759 235.156 377.771 227.912 378.834C222.892 376.781 217.661 374.135 212.438 370.857C203.405 365.171 194.435 357.577 186.456 347.701C167.839 324.697 153.576 323.283 141.767 325.863C118.474 330.946 117.553 349.001 117.553 349.001C117.553 349.001 112.304 334.021 127.173 316.942C132.239 311.118 138.069 306.436 144.858 303.335C159.237 296.847 177.999 297.436 203.288 309.992C207.548 312.121 211.864 314.623 216.128 317.419C222.78 321.835 229.284 326.934 235.337 332.311C241.557 337.825 247.292 343.631 252.121 349.211C257.767 355.756 262.226 362.058 264.872 367.36C265.228 368.02 265.771 369.188 266.031 369.802Z" fill="#CDD8F7"/>
</g>
</g>
</g>
<g id="Clip path group_13">
<mask id="mask15_1_7" style="mask-type:luminance" maskUnits="userSpaceOnUse" x="44" y="64" width="506" height="326">
<g id="SVGID_00000005960847054561990450000009433465500110992056__16">
<path id="Vector_31" d="M445.101 387.689C422.078 395.145 413.339 369.93 413.339 369.93C330.348 369.836 247.356 369.322 164.365 369.649C99.595 369.904 70.812 351.815 59.185 336.701C43.024 315.694 39.443 284.213 52.628 261.221C81.374 211.091 101.197 217.551 98.333 172.882C95.403 127.168 130.706 112.023 149.758 93.66C180.579 63.954 215.095 71.588 250.738 83.899C301.806 101.539 307.064 64.009 366.416 64.867C382.608 65.101 396.751 75.342 406.272 88.441C434.268 126.959 498.316 118.32 488.785 164.974C487.289 172.296 504.33 186.523 507.008 193.5C511.743 205.838 497.071 224.169 509.815 220.67C570.909 203.896 544.443 285.627 539.038 310.23C533.633 334.833 511.824 353.198 488.057 361.546C487.173 361.857 445.99 387.401 445.101 387.689Z" fill="white"/>
</g>
</mask>
<g mask="url(#mask15_1_7)">
<g id="Group_15">
<path id="Vector_32" d="M320.487 372.076C320.364 372.076 320.244 372.011 320.178 371.897C320.078 371.727 320.137 371.508 320.308 371.41C331.859 364.719 341.248 354.725 351.189 344.145C367.35 326.943 384.062 309.156 411.58 304.756C448.4 298.829 464.318 314.918 471.193 329.46C471.277 329.638 471.201 329.851 471.022 329.936C470.846 330.015 470.631 329.944 470.546 329.765C463.777 315.445 448.073 299.604 411.693 305.461C384.416 309.821 367.789 327.519 351.71 344.633C341.732 355.253 332.309 365.283 320.666 372.027C320.61 372.06 320.549 372.076 320.487 372.076Z" fill="#6A5087"/>
</g>
</g>
</g>
<g id="Clip path group_14">
<mask id="mask16_1_7" style="mask-type:luminance" maskUnits="userSpaceOnUse" x="44" y="64" width="506" height="326">
<g id="SVGID_00000005960847054561990450000009433465500110992056__17">
<path id="Vector_33" d="M445.101 387.689C422.078 395.145 413.339 369.93 413.339 369.93C330.348 369.836 247.356 369.322 164.365 369.649C99.595 369.904 70.812 351.815 59.185 336.701C43.024 315.694 39.443 284.213 52.628 261.221C81.374 211.091 101.197 217.551 98.333 172.882C95.403 127.168 130.706 112.023 149.758 93.66C180.579 63.954 215.095 71.588 250.738 83.899C301.806 101.539 307.064 64.009 366.416 64.867C382.608 65.101 396.751 75.342 406.272 88.441C434.268 126.959 498.316 118.32 488.785 164.974C487.289 172.296 504.33 186.523 507.008 193.5C511.743 205.838 497.071 224.169 509.815 220.67C570.909 203.896 544.443 285.627 539.038 310.23C533.633 334.833 511.824 353.198 488.057 361.546C487.173 361.857 445.99 387.401 445.101 387.689Z" fill="white"/>
</g>
</mask>
<g mask="url(#mask16_1_7)">
<g id="Group_16">
<path id="Vector_34" d="M256.229 372.662C256.153 372.662 256.077 372.638 256.012 372.588C244.761 363.954 231.451 351.549 210.07 329.772C176.396 295.416 152.578 299.85 141.377 305.55C141.294 305.582 141.246 305.6 141.233 305.608C141.205 305.637 141.182 305.654 141.146 305.673C136.283 308.158 133.452 310.993 132.7 311.803C132.561 311.974 132.451 312.064 132.43 312.079C132.276 312.202 132.052 312.177 131.929 312.019C131.807 311.864 131.834 311.64 131.989 311.518C131.999 311.509 132.066 311.451 132.162 311.332C132.947 310.486 135.837 307.592 140.777 305.059C140.879 304.972 140.988 304.934 141.094 304.896C152.429 299.124 176.587 294.592 210.58 329.272C231.936 351.024 245.225 363.41 256.447 372.022C256.604 372.142 256.633 372.366 256.513 372.523C256.443 372.613 256.337 372.662 256.229 372.662Z" fill="#6A5087"/>
</g>
</g>
</g>
<g id="Clip path group_15">
<mask id="mask17_1_7" style="mask-type:luminance" maskUnits="userSpaceOnUse" x="44" y="64" width="506" height="326">
<g id="SVGID_00000005960847054561990450000009433465500110992056__18">
<path id="Vector_35" d="M445.101 387.689C422.078 395.145 413.339 369.93 413.339 369.93C330.348 369.836 247.356 369.322 164.365 369.649C99.595 369.904 70.812 351.815 59.185 336.701C43.024 315.694 39.443 284.213 52.628 261.221C81.374 211.091 101.197 217.551 98.333 172.882C95.403 127.168 130.706 112.023 149.758 93.66C180.579 63.954 215.095 71.588 250.738 83.899C301.806 101.539 307.064 64.009 366.416 64.867C382.608 65.101 396.751 75.342 406.272 88.441C434.268 126.959 498.316 118.32 488.785 164.974C487.289 172.296 504.33 186.523 507.008 193.5C511.743 205.838 497.071 224.169 509.815 220.67C570.909 203.896 544.443 285.627 539.038 310.23C533.633 334.833 511.824 353.198 488.057 361.546C487.173 361.857 445.99 387.401 445.101 387.689Z" fill="white"/>
</g>
</mask>
<g mask="url(#mask17_1_7)">
<g id="Group_17">
<path id="Vector_36" d="M275.97 366.219C275.805 366.219 275.656 366.103 275.621 365.934C275.581 365.744 271.318 346.474 242.812 311.272C201.569 260.342 152.27 248.457 151.777 248.342C151.585 248.298 151.465 248.106 151.51 247.914C151.554 247.722 151.747 247.6 151.938 247.646C152.434 247.76 201.971 259.704 243.367 310.822C272.005 346.186 276.281 365.596 276.321 365.789C276.361 365.981 276.237 366.171 276.044 366.211C276.019 366.216 275.994 366.219 275.97 366.219Z" fill="#6A5087"/>
</g>
</g>
</g>
</g>
</g>
</g>
<g id="hand">
<g id="Group_18">
<g id="Clip path group_16">
<g id="Group_19">
<g id="Group_20">
<path id="Vector_37" d="M368.567 388.507C363.349 384.567 347.671 383.934 329.839 387.378C312.836 390.661 299.036 396.628 294.855 402.019L286.711 329.666C286.711 329.631 286.699 329.597 286.699 329.562C285.777 321.683 280.628 314.955 273.29 311.914C272.76 311.695 272.242 311.465 271.723 311.223C262.519 306.926 255.147 298.943 251.84 288.68L247.013 231.083L329.572 215.221L345.711 301.167C346.414 304.911 347.266 308.632 348.245 312.306L368.567 388.507Z" fill="#FFBBA1"/>
<g id="Group_21">
<path id="Vector_38" d="M307.356 314.593C307.094 314.593 306.875 314.39 306.857 314.126C306.839 313.855 305.172 286.836 313.347 261.848C313.434 261.585 313.715 261.443 313.978 261.528C314.241 261.614 314.384 261.896 314.298 262.159C306.182 286.966 307.837 313.793 307.855 314.06C307.872 314.335 307.665 314.574 307.389 314.592C307.378 314.593 307.367 314.593 307.356 314.593Z" fill="#E89372"/>
</g>
<path id="Vector_39" d="M350.874 322.167L343.473 323.932L324.75 317.461C309.983 303.175 318.292 259.283 322.186 238.219L333.564 165.527C335.214 152.712 338.262 141.778 349.935 136.239C352.471 136.157 354.466 138.398 354.073 140.906C352.054 153.787 352.744 196.524 363.208 249.024C364.965 257.839 362.1 268.242 358.462 278.28C353.522 291.9 349.057 307.792 350.874 322.167Z" fill="#FFBBA1"/>
<path id="Vector_40" d="M354.975 145.363C354.798 151.321 353.21 153.455 353.21 153.455C351.262 153.518 349.659 150.013 349.995 145.028C350.33 140.043 351.717 136.077 353.092 136.169C354.467 136.262 355.123 140.374 354.975 145.363Z" fill="#C25176"/>
<g id="Group_22">
<path id="Vector_41" d="M355.012 193.794C354.971 193.794 354.929 193.789 354.887 193.778C350.995 192.776 346.273 192.316 346.226 192.311C345.952 192.285 345.749 192.041 345.776 191.766C345.803 191.491 346.05 191.287 346.322 191.316C346.37 191.32 351.171 191.789 355.137 192.81C355.405 192.879 355.565 193.152 355.496 193.419C355.438 193.645 355.234 193.794 355.012 193.794Z" fill="#E89372"/>
</g>
<g id="Group_23">
<path id="Vector_42" d="M355.542 199.102C355.52 199.102 355.499 199.101 355.477 199.098C351.035 198.529 346.528 198.54 346.477 198.543H346.475C346.2 198.543 345.976 198.321 345.975 198.045C345.974 197.769 346.197 197.544 346.473 197.543C346.514 197.543 351.1 197.529 355.604 198.106C355.878 198.141 356.072 198.392 356.037 198.665C356.005 198.918 355.789 199.102 355.542 199.102Z" fill="#E89372"/>
</g>
<g id="Group_24">
<path id="Vector_43" d="M377.609 415.912C377.678 416.546 377.217 417.122 376.584 417.179C375.962 417.237 375.386 416.787 375.317 416.165C375.317 416.061 375.305 415.992 375.294 415.923C375.282 415.865 375.271 415.808 375.26 415.75C370.721 411.338 353.995 410.578 334.815 414.276C317.501 417.617 303.413 423.572 298.932 428.952C298.621 429.586 298.517 430.15 298.621 430.668C298.748 431.29 298.344 431.901 297.723 432.027C297.642 432.039 297.562 432.05 297.493 432.05C296.952 432.05 296.479 431.67 296.364 431.117C296.134 430 296.364 428.813 297.032 427.615C297.205 427.304 297.401 427.004 297.631 426.693L295.592 408.596C294.486 407.813 293.795 406.903 293.599 405.866C293.369 404.656 293.818 403.355 294.855 402.018C299.037 396.627 312.837 390.66 329.839 387.377C347.671 383.933 363.349 384.566 368.567 388.506C369.558 389.243 370.168 390.107 370.352 391.075C370.513 391.893 370.364 392.734 369.937 393.609L374.798 411.844C375.938 412.57 376.768 413.445 377.229 414.459C377.379 414.77 377.494 415.116 377.552 415.484C377.575 415.601 377.598 415.762 377.609 415.912Z" fill="#3C2457"/>
</g>
<path id="Vector_44" d="M286.698 329.563C285.776 321.684 280.627 314.956 273.289 311.915C272.759 311.696 272.241 311.466 271.722 311.224C271.722 311.224 275.351 312.387 286.421 313.321C295.395 314.081 288.484 320.808 286.698 329.563Z" fill="#3C2457"/>
<path id="Vector_45" d="M367.55 316.715C369.209 323.949 370.824 331.761 372.382 339.702C372.382 339.702 372.395 339.729 372.401 339.777C372.426 339.9 372.451 340.023 372.476 340.146C372.651 341.074 372.825 342.003 373.007 342.911C373.045 343.096 373.069 343.286 373.113 343.485C376.061 358.873 378.726 374.481 380.815 387.193C374.619 383.446 367.374 381.349 359.515 380.541C334.43 377.927 303.277 388.389 281.559 399.782C269.179 406.265 272.023 372.958 267.562 358.497C299.308 343.669 332.776 325.251 367.55 316.715Z" fill="#FFD980"/>
<path id="Vector_46" d="M367.551 316.712C369.494 320.771 348.429 335.504 322.468 347.934C296.507 360.363 269.509 362.557 267.566 358.498C265.623 354.439 279.489 343.796 314.259 330.713C341.198 320.576 365.608 312.653 367.551 316.712Z" fill="#FFD980"/>
<path id="Vector_47" d="M479.681 521.376C513.001 590.972 464.082 602.892 428.886 619.743C393.69 636.593 347.79 670.757 314.47 601.16C306.16 583.802 288.763 521.921 283.185 501.146C278.246 482.798 274.751 464.012 273.365 446.392C273.366 446.358 273.353 446.331 273.353 446.297C273.27 445.173 273.194 444.062 273.118 442.952C270.532 402.074 279.782 368.162 309.478 361.771C321.853 359.118 337.508 354.93 351.584 361.785C380.919 376.059 457.167 474.352 479.681 521.376Z" fill="#FFD980"/>
<g id="Group_25">
<path id="Vector_48" d="M274.586 417.164C274.389 417.164 274.213 417.023 274.177 416.822C274.156 416.706 272.193 405.094 282.605 395.282C288.498 389.7 301.424 382.158 318.457 379.278C328.103 377.651 337.092 376.944 345.173 377.163C360.406 377.564 373.031 381.172 382.698 387.884C382.728 387.896 382.758 387.911 382.785 387.93C385.432 389.789 387.882 391.903 390.063 394.212C390.221 394.379 390.213 394.643 390.046 394.801C389.878 394.959 389.615 394.952 389.457 394.784C387.333 392.536 384.952 390.476 382.378 388.662C382.348 388.651 382.319 388.636 382.293 388.618C372.753 381.968 360.256 378.393 345.15 377.995C337.124 377.777 328.188 378.482 318.595 380.099C301.746 382.949 288.985 390.385 283.176 395.888C273.089 405.394 274.976 416.563 274.996 416.674C275.037 416.901 274.887 417.117 274.661 417.158C274.636 417.162 274.611 417.164 274.586 417.164Z" fill="#3C2457"/>
</g>
<g id="Group_26">
<path id="Vector_49" d="M386.106 420.327C385.969 420.327 385.835 420.261 385.756 420.137C380.544 412.068 375.614 405.049 371.105 399.279C363.376 389.377 352.546 377.66 345.062 378.123L344.762 378.141C344.619 378.15 344.501 378.158 344.407 378.16C344.183 378.18 343.986 377.985 343.98 377.755C343.974 377.526 344.155 377.334 344.385 377.328C344.471 377.325 344.578 377.318 344.708 377.31L345.013 377.291C351.365 376.907 360.34 384.135 371.761 398.767C376.286 404.557 381.231 411.595 386.455 419.687C386.58 419.879 386.524 420.137 386.331 420.262C386.263 420.306 386.185 420.327 386.106 420.327Z" fill="#3C2457"/>
</g>
<g id="Group_27">
<path id="Vector_50" d="M366.194 342.114C365.968 342.114 365.783 341.933 365.778 341.707C365.471 327.378 361.85 321.732 358.866 319.519C355.883 317.307 352.981 318.085 352.95 318.092C352.732 318.155 352.499 318.027 352.436 317.805C352.373 317.584 352.502 317.355 352.722 317.291C352.855 317.255 356.021 316.388 359.34 318.834C363.912 322.204 366.358 329.894 366.61 341.689C366.615 341.918 366.433 342.109 366.203 342.114C366.2 342.114 366.197 342.114 366.194 342.114Z" fill="#3C2457"/>
</g>
<g id="Group_28">
<path id="Vector_51" d="M279.154 364.751C278.994 364.751 278.842 364.658 278.773 364.502C275.578 357.278 274.884 351.91 276.711 348.548C278.055 346.074 280.274 345.693 280.367 345.678C280.595 345.636 280.806 345.795 280.843 346.022C280.88 346.248 280.726 346.462 280.5 346.5C280.422 346.513 278.571 346.848 277.431 348.967C276.274 351.116 275.701 355.498 279.535 364.166C279.628 364.376 279.533 364.622 279.323 364.715C279.268 364.739 279.21 364.751 279.154 364.751Z" fill="#3C2457"/>
</g>
<path id="Vector_52" d="M286.61 380.778C286.534 380.562 291.396 389.124 282.747 394.869L294.451 387.7C294.451 387.7 288.713 386.725 286.61 380.778Z" fill="#3C2457"/>
<path id="Vector_53" d="M382.532 388.277C377.847 387.299 373.759 387.991 372.258 390.986C371.151 393.219 371.113 396.274 371.433 399.022C354.9 377.842 347.495 377.558 345.036 377.707L345.161 377.58C362.124 378.026 374.127 382.417 382.532 388.277Z" fill="#3C2457"/>
<path id="Vector_54" d="M373.114 343.484C376.062 358.872 378.727 374.48 380.816 387.192C374.62 383.445 367.375 381.348 359.516 380.54C356.007 379.2 353.5 378.225 353.236 378.132C353.725 378.202 361.377 379.143 369.667 372.29C376.176 366.897 374.348 350.854 373.114 343.484Z" fill="#3C2457"/>
</g>
<path id="Vector_55" d="M226.359 150.158C231.826 152.573 234.274 152.911 230.478 160.06C229.049 162.751 225.474 162.233 221.086 159.843C216.698 157.454 214.321 153.349 215.777 150.674C217.233 148 221.781 148.135 226.359 150.158Z" fill="#943E5A"/>
<path id="Vector_56" d="M262.269 162.745L254.197 182.137L224.78 167.911C218.854 165.045 216.239 158.493 218.499 153.063C219.647 150.306 222.903 148.89 225.886 149.94L262.269 162.745Z" fill="#FFBBA1"/>
<path id="Vector_57" d="M255.627 204.972L245.129 218.366L224.532 202.351L231.85 186.336L255.627 204.972Z" fill="#FFBBA1"/>
<path id="Vector_58" d="M227.826 273.796L244.206 292.749L253.931 282.737L238.482 265.852L227.826 273.796Z" fill="#FFBBA1"/>
<path id="Vector_59" d="M222.381 244.124L243.834 261.549L252.465 248.797L232.422 233.438L222.381 244.124Z" fill="#FFBBA1"/>
<g id="Group_29">
<path id="Vector_60" d="M325.468 300.779H244.704C239.968 300.779 236.129 296.94 236.129 292.204V121.588C236.129 116.852 239.968 113.013 244.704 113.013H325.468C330.204 113.013 334.043 116.852 334.043 121.588V292.203C334.044 296.94 330.204 300.779 325.468 300.779Z" fill="#D66233"/>
<g id="Group_30">
<path id="Vector_61" d="M321.013 295.374H249.16C244.811 295.374 241.286 291.849 241.286 287.5V126.292C241.286 121.943 244.811 118.418 249.16 118.418H321.014C325.363 118.418 328.888 121.943 328.888 126.292V287.5C328.887 291.849 325.362 295.374 321.013 295.374Z" fill="white"/>
<g id="Clip path group_17">
<mask id="mask18_1_7" style="mask-type:luminance" maskUnits="userSpaceOnUse" x="241" y="118" width="88" height="178">
<g id="SVGID_00000034769867962571202330000017620031979782547854_">
<path id="Vector_62" d="M321.013 295.374H249.16C244.811 295.374 241.286 291.849 241.286 287.5V126.292C241.286 121.943 244.811 118.418 249.16 118.418H321.014C325.363 118.418 328.888 121.943 328.888 126.292V287.5C328.887 291.849 325.362 295.374 321.013 295.374Z" fill="white"/>
</g>
</mask>
<g mask="url(#mask18_1_7)">
<g id="Group_31">
<path id="Vector_63" d="M328.887 118.044H241.285V282.583H328.887V118.044Z" fill="url(#paint0_linear_1_7)"/>
<path id="Vector_64" d="M328.887 280.781H241.285V295.374H328.887V280.781Z" fill="#F6DDB1"/>
<g id="Group_32">
<path id="Vector_65" d="M309.529 288.018L304.863 285.104V290.933L309.529 288.018Z" fill="white"/>
<path id="Vector_66" d="M287.603 287.991C287.603 289.484 286.484 290.695 285.105 290.695C283.725 290.695 282.606 289.484 282.606 287.991C282.606 286.498 283.725 285.287 285.105 285.287C286.485 285.287 287.603 286.497 287.603 287.991Z" fill="white"/>
<path id="Vector_67" d="M265.513 285.287H260.516V290.694H265.513V285.287Z" fill="white"/>
</g>
</g>
</g>
</g>
<g id="Clip path group_18">
<mask id="mask19_1_7" style="mask-type:luminance" maskUnits="userSpaceOnUse" x="241" y="118" width="88" height="178">
<g id="SVGID_00000034769867962571202330000017620031979782547854__2">
<path id="Vector_68" d="M321.013 295.374H249.16C244.811 295.374 241.286 291.849 241.286 287.5V126.292C241.286 121.943 244.811 118.418 249.16 118.418H321.014C325.363 118.418 328.888 121.943 328.888 126.292V287.5C328.887 291.849 325.362 295.374 321.013 295.374Z" fill="white"/>
</g>
</mask>
<g mask="url(#mask19_1_7)">
<g id="Group_33">
<g id="Group_34">
<g id="Group_35">
<path id="Vector_69" d="M249.481 129.028C249.377 129.028 249.276 128.974 249.22 128.878C249.137 128.734 249.186 128.549 249.329 128.466L253.373 126.12C253.519 126.037 253.702 126.086 253.785 126.229C253.868 126.373 253.819 126.558 253.676 126.641L249.632 128.987C249.584 129.015 249.532 129.028 249.481 129.028Z" fill="white"/>
</g>
<g id="Group_36">
<path id="Vector_70" d="M249.481 129.028C249.377 129.028 249.276 128.974 249.22 128.878C249.137 128.734 249.186 128.549 249.329 128.466L253.373 126.12C253.519 126.037 253.702 126.086 253.785 126.229C253.868 126.373 253.819 126.558 253.676 126.641L249.632 128.987C249.584 129.015 249.532 129.028 249.481 129.028Z" fill="#8C8ED4"/>
</g>
<g id="Group_37">
<path id="Vector_71" d="M253.523 131.374C253.472 131.374 253.42 131.361 253.372 131.334L249.328 128.988C249.184 128.905 249.135 128.72 249.219 128.576C249.302 128.432 249.486 128.384 249.631 128.467L253.675 130.813C253.818 130.896 253.868 131.081 253.784 131.225C253.729 131.321 253.627 131.374 253.523 131.374Z" fill="#8C8ED4"/>
</g>
</g>
</g>
</g>
</g>
<g id="Clip path group_19">
<mask id="mask20_1_7" style="mask-type:luminance" maskUnits="userSpaceOnUse" x="241" y="118" width="88" height="178">
<g id="SVGID_00000034769867962571202330000017620031979782547854__3">
<path id="Vector_72" d="M321.013 295.374H249.16C244.811 295.374 241.286 291.849 241.286 287.5V126.292C241.286 121.943 244.811 118.418 249.16 118.418H321.014C325.363 118.418 328.888 121.943 328.888 126.292V287.5C328.887 291.849 325.362 295.374 321.013 295.374Z" fill="white"/>
</g>
</mask>
<g mask="url(#mask20_1_7)">
<g id="Group_38">
<path id="Vector_73" d="M317.588 131.444H317.587C317.505 131.443 317.426 131.41 317.369 131.35L315.013 128.858C314.99 128.838 314.957 128.801 314.924 128.764L314.74 128.527C314.735 128.52 314.729 128.512 314.724 128.504C314.532 128.199 314.431 127.851 314.431 127.498C314.431 126.454 315.28 125.604 316.324 125.604C316.804 125.604 317.255 125.783 317.6 126.104C317.947 125.783 318.397 125.604 318.876 125.604C319.92 125.604 320.769 126.454 320.769 127.498C320.769 127.851 320.668 128.199 320.476 128.504L320.301 128.734C320.245 128.797 320.206 128.84 320.163 128.881L317.804 131.351C317.749 131.411 317.67 131.444 317.588 131.444ZM315.227 128.171L315.388 128.381C315.394 128.387 315.414 128.41 315.436 128.431L317.588 130.706L319.74 128.453C319.783 128.413 319.81 128.382 319.838 128.351L319.983 128.161C320.098 127.974 320.168 127.738 320.168 127.498C320.168 126.786 319.588 126.207 318.876 126.207C318.468 126.207 318.09 126.399 317.841 126.733C317.784 126.81 317.694 126.855 317.6 126.855C317.504 126.855 317.414 126.81 317.358 126.733C317.11 126.399 316.733 126.207 316.324 126.207C315.612 126.207 315.033 126.786 315.033 127.498C315.033 127.733 315.101 127.966 315.227 128.171Z" fill="#8C8ED4"/>
</g>
</g>
</g>
</g>
<path id="Vector_74" d="M334.137 157.361C333.501 157.361 332.985 156.845 332.985 156.209V143.463C332.985 142.827 333.501 142.311 334.137 142.311C334.773 142.311 335.289 142.827 335.289 143.463V156.209C335.289 156.845 334.773 157.361 334.137 157.361Z" fill="#D66233"/>
<path id="Vector_75" d="M334.137 173.414C333.501 173.414 332.985 172.898 332.985 172.262V159.516C332.985 158.88 333.501 158.364 334.137 158.364C334.773 158.364 335.289 158.88 335.289 159.516V172.262C335.289 172.898 334.773 173.414 334.137 173.414Z" fill="#D66233"/>
<path id="Vector_76" d="M236.129 156.748C235.493 156.748 234.977 156.232 234.977 155.596V144.077C234.977 143.441 235.493 142.925 236.129 142.925C236.765 142.925 237.281 143.441 237.281 144.077V155.596C237.281 156.232 236.765 156.748 236.129 156.748Z" fill="#D66233"/>
<g id="Group_39">
<path id="Vector_77" d="M292.345 116.226H287.087C286.802 116.226 286.571 115.995 286.571 115.71C286.571 115.425 286.802 115.194 287.087 115.194H292.345C292.63 115.194 292.861 115.425 292.861 115.71C292.861 115.995 292.63 116.226 292.345 116.226Z" fill="#10193D"/>
<path id="Vector_78" d="M281.72 115.71C281.72 116.63 280.975 117.375 280.055 117.375C279.135 117.375 278.39 116.63 278.39 115.71C278.39 114.79 279.136 114.045 280.055 114.045C280.974 114.045 281.72 114.79 281.72 115.71Z" fill="#10193D"/>
<path id="Vector_79" d="M284.074 116.887C284.724 116.887 285.251 116.36 285.251 115.71C285.251 115.06 284.724 114.533 284.074 114.533C283.424 114.533 282.897 115.06 282.897 115.71C282.897 116.36 283.424 116.887 284.074 116.887Z" fill="#10193D"/>
</g>
</g>
<path id="Vector_80" d="M253.049 259.352C252.184 256.942 249.623 255.67 247.108 256.475L231.097 263.355C226.428 265.361 224.856 270.996 228.232 274.038L233.046 278.376L248.258 270.674C252.499 268.526 254.548 263.528 253.049 259.352Z" fill="#FFBBA1"/>
<path id="Vector_81" d="M247.013 217.718C245.481 215.044 241.543 213.298 237.422 216.983L224.903 229.142C220.729 233.238 216.469 239.026 221.643 243.737L228.948 249.459L243.704 232.647C250.197 224.12 247.013 217.718 247.013 217.718Z" fill="#FFBBA1"/>
<path id="Vector_82" d="M230.405 206.825L226.286 203.842C219.708 199.077 218.217 189.892 222.952 183.292L233.54 168.532C235.257 165.558 239.371 165.112 241.685 167.65L241.696 167.662C245.899 172.272 246.635 179.072 243.516 184.474L230.405 206.825Z" fill="#FFBBA1"/>
<path id="Vector_83" d="M243.213 258.441C238.222 260.9 236.056 261.453 238.692 266.243C239.684 268.046 242.849 267.219 246.898 264.914C250.947 262.609 253.404 259.291 252.387 257.504C251.37 255.716 247.393 256.382 243.213 258.441Z" fill="#C25176"/>
<path id="Vector_84" d="M236.011 218.155C232.287 222.291 230.457 223.592 234.971 227.264C236.67 228.646 239.337 226.728 242.228 223.073C245.119 219.419 246.07 215.355 244.353 213.997C242.637 212.639 239.13 214.691 236.011 218.155Z" fill="#C25176"/>
<path id="Vector_85" d="M231.537 170.87C228.246 175.848 226.518 177.522 231.812 180.66C233.805 181.841 236.318 179.378 238.807 175.045C241.295 170.712 241.685 166.265 239.678 165.112C237.67 163.96 234.293 166.701 231.537 170.87Z" fill="#C25176"/>
<g id="Group_40">
<path id="Vector_86" d="M231.203 247.392C231.086 247.392 230.968 247.351 230.873 247.268C230.665 247.085 230.645 246.77 230.827 246.562L240.423 235.629C240.606 235.421 240.921 235.401 241.129 235.583C241.337 235.766 241.357 236.081 241.175 236.289L231.579 247.222C231.48 247.334 231.342 247.392 231.203 247.392Z" fill="#E89372"/>
</g>
<g id="Group_41">
<path id="Vector_87" d="M230.438 201.037C230.369 201.037 230.298 201.022 230.23 200.994C229.977 200.885 229.869 200.575 229.978 200.321C230.134 199.96 230.497 199.776 231.097 199.47C232.504 198.755 235.432 197.268 238.662 191.76C238.802 191.522 239.108 191.441 239.346 191.582C239.584 191.722 239.664 192.028 239.524 192.266C236.145 198.027 233.041 199.604 231.549 200.362C231.265 200.506 230.944 200.67 230.878 200.748C230.798 200.933 230.624 201.037 230.438 201.037Z" fill="#E89372"/>
</g>
<g id="Group_42">
<path id="Vector_88" d="M317.663 157.893V204.293C317.663 211.313 311.983 216.993 304.973 216.993H265.163C258.153 216.993 252.473 211.313 252.473 204.293V157.893C252.473 150.883 258.153 145.193 265.163 145.193H304.973C305.413 145.193 305.843 145.213 306.273 145.273C307.143 145.353 307.983 145.523 308.783 145.773C313.933 147.393 317.663 152.203 317.663 157.893Z" fill="url(#paint1_linear_1_7)"/>
<g id="Group_43">
<path id="Vector_89" d="M301.292 228.199H254.496C253.378 228.199 252.471 227.292 252.471 226.174C252.471 225.056 253.378 224.149 254.496 224.149H301.292C302.41 224.149 303.317 225.056 303.317 226.174C303.316 227.292 302.41 228.199 301.292 228.199Z" fill="#704D99"/>
<path id="Vector_90" d="M285.332 235.383H254.495C253.377 235.383 252.47 234.476 252.47 233.358C252.47 232.24 253.377 231.333 254.495 231.333H285.332C286.45 231.333 287.357 232.24 287.357 233.358C287.357 234.477 286.45 235.383 285.332 235.383Z" fill="#704D99"/>
</g>
<g id="Group_44">
<g id="Group_45">
<path id="Vector_91" d="M317.67 245.669H291.034C290.574 245.669 290.201 245.296 290.201 244.836C290.201 244.376 290.574 244.003 291.034 244.003H317.67C318.13 244.003 318.503 244.376 318.503 244.836C318.503 245.296 318.13 245.669 317.67 245.669Z" fill="#6667AA"/>
</g>
<g id="Group_46">
<path id="Vector_92" d="M291.034 245.669H252.47C252.01 245.669 251.637 245.296 251.637 244.836C251.637 244.376 252.01 244.003 252.47 244.003H291.033C291.493 244.003 291.866 244.376 291.866 244.836C291.867 245.296 291.494 245.669 291.034 245.669Z" fill="#F07343"/>
</g>
<path id="Vector_93" d="M293.86 244.836C293.86 246.397 292.595 247.662 291.034 247.662C289.473 247.662 288.208 246.397 288.208 244.836C288.208 243.275 289.474 242.01 291.034 242.01C292.594 242.01 293.86 243.275 293.86 244.836Z" fill="#F07343"/>
</g>
<g id="Group_47">
<g id="Group_48">
<g id="Group_49">
<path id="Vector_94" d="M269.703 263.32L272.349 261.421C272.559 261.27 272.851 261.42 272.851 261.679V265.477C272.851 265.735 272.559 265.885 272.349 265.735L269.703 263.836C269.527 263.709 269.527 263.447 269.703 263.32Z" fill="#482A6B"/>
</g>
<g id="Group_50">
<path id="Vector_95" d="M268.821 265.853C268.706 265.853 268.613 265.76 268.613 265.645V261.387C268.613 261.272 268.706 261.179 268.821 261.179C268.936 261.179 269.029 261.273 269.029 261.387V265.645C269.029 265.76 268.936 265.853 268.821 265.853Z" fill="#482A6B"/>
</g>
</g>
<g id="Group_51">
<g id="Group_52">
<path id="Vector_96" d="M301.555 263.32L298.909 261.421C298.699 261.27 298.407 261.42 298.407 261.679V265.477C298.407 265.735 298.699 265.885 298.909 265.735L301.555 263.836C301.732 263.709 301.732 263.447 301.555 263.32Z" fill="#482A6B"/>
</g>
<g id="Group_53">
<path id="Vector_97" d="M302.438 265.853C302.323 265.853 302.23 265.76 302.23 265.645V261.387C302.23 261.272 302.323 261.179 302.438 261.179C302.553 261.179 302.646 261.273 302.646 261.387V265.645C302.646 265.76 302.553 265.853 302.438 265.853Z" fill="#482A6B"/>
</g>
</g>
<g id="Group_54">
<path id="Vector_98" d="M290.834 268.718C293.707 265.845 293.707 261.187 290.834 258.314C287.961 255.441 283.302 255.441 280.429 258.314C277.556 261.187 277.556 265.845 280.429 268.718C283.302 271.591 287.961 271.591 290.834 268.718Z" fill="#F07343"/>
<g id="Group_55">
<g id="Group_56">
<path id="Vector_99" d="M283.625 266.858C283.28 266.858 283 266.578 283 266.233V260.633C283 260.288 283.28 260.008 283.625 260.008C283.97 260.008 284.249 260.288 284.249 260.633V266.233C284.249 266.578 283.97 266.858 283.625 266.858Z" fill="white"/>
</g>
<g id="Group_57">
<path id="Vector_100" d="M287.142 266.858C286.797 266.858 286.517 266.578 286.517 266.233V260.633C286.517 260.288 286.797 260.008 287.142 260.008C287.487 260.008 287.766 260.288 287.766 260.633V266.233C287.766 266.578 287.486 266.858 287.142 266.858Z" fill="white"/>
</g>
</g>
</g>
<g id="Group_58">
<g id="Group_59">
<g id="Group_60">
<path id="Vector_101" d="M258.252 264.706L259.614 263.828C259.717 263.762 259.852 263.836 259.852 263.958V265.715C259.852 265.837 259.717 265.911 259.614 265.845L258.252 264.967C258.157 264.904 258.157 264.767 258.252 264.706Z" fill="#8C8ED4"/>
</g>
</g>
<g id="Group_61">
<path id="Vector_102" d="M260.273 265.043C260.169 265.043 260.076 264.965 260.064 264.86C260.05 264.75 260.123 264.649 260.232 264.631C260.265 264.625 260.288 264.624 261.507 264.623H261.508C261.921 264.623 262.309 264.462 262.602 264.171C262.895 263.878 263.056 263.489 263.056 263.076C263.056 262.961 263.149 262.868 263.264 262.868C263.379 262.868 263.472 262.962 263.472 263.076C263.472 263.601 263.267 264.094 262.896 264.465C262.525 264.835 262.032 265.039 261.508 265.039H261.506C261.162 265.038 260.362 265.037 260.288 265.043C260.282 265.043 260.277 265.043 260.273 265.043Z" fill="#8C8ED4"/>
</g>
<g id="Group_62">
<g id="Group_63">
<path id="Vector_103" d="M263.323 262.326L261.961 263.204C261.858 263.27 261.723 263.196 261.723 263.074V261.317C261.723 261.195 261.858 261.121 261.961 261.187L263.323 262.065C263.417 262.127 263.417 262.265 263.323 262.326Z" fill="#8C8ED4"/>
</g>
</g>
<g id="Group_64">
<path id="Vector_104" d="M258.312 264.164C258.197 264.164 258.104 264.07 258.104 263.956C258.104 263.431 258.309 262.938 258.68 262.567C259.051 262.197 259.543 261.993 260.068 261.993H260.07C260.412 261.992 261.214 261.995 261.288 261.989C261.41 261.988 261.499 262.062 261.512 262.172C261.525 262.282 261.453 262.383 261.344 262.401C261.311 262.407 261.29 262.409 260.069 262.409H260.068C259.655 262.409 259.267 262.57 258.974 262.861C258.682 263.154 258.521 263.543 258.521 263.956C258.52 264.07 258.427 264.164 258.312 264.164Z" fill="#8C8ED4"/>
</g>
</g>
<g id="Group_65">
<g id="Group_66">
<g id="Group_67">
<path id="Vector_105" d="M313.255 264.572L312.003 263.765C311.908 263.704 311.784 263.772 311.784 263.884V265.499C311.784 265.611 311.908 265.679 312.003 265.618L313.255 264.811C313.341 264.755 313.341 264.628 313.255 264.572Z" fill="#8C8ED4"/>
</g>
</g>
<g id="Group_68">
<g id="Group_69">
<path id="Vector_106" d="M313.255 262.459L312.003 263.266C311.908 263.327 311.784 263.259 311.784 263.147V261.532C311.784 261.42 311.908 261.352 312.003 261.413L313.255 262.221C313.341 262.276 313.341 262.403 313.255 262.459Z" fill="#8C8ED4"/>
</g>
</g>
<g id="Group_70">
<path id="Vector_107" d="M311.208 264.9C311.202 264.9 311.196 264.9 311.189 264.899L311.063 264.888C309.506 264.752 308.169 263.711 307.657 262.236C307.62 262.127 307.677 262.009 307.786 261.971C307.894 261.935 308.013 261.991 308.051 262.1C308.51 263.421 309.707 264.353 311.1 264.474L311.227 264.485C311.342 264.496 311.426 264.596 311.416 264.711C311.405 264.819 311.314 264.9 311.208 264.9Z" fill="#8C8ED4"/>
</g>
<g id="Group_71">
<path id="Vector_108" d="M307.854 264.935C307.831 264.935 307.808 264.931 307.786 264.924C307.677 264.886 307.62 264.768 307.657 264.659C308.169 263.184 309.506 262.143 311.064 262.007L311.189 261.996C311.32 261.976 311.405 262.071 311.415 262.185C311.426 262.3 311.341 262.401 311.226 262.411L311.1 262.422C309.706 262.543 308.509 263.475 308.05 264.796C308.02 264.881 307.94 264.935 307.854 264.935Z" fill="#8C8ED4"/>
</g>
</g>
</g>
<path id="Vector_109" d="M296.893 138.999H275.272C274.385 138.999 273.666 138.28 273.666 137.393C273.666 136.506 274.385 135.787 275.272 135.787H296.893C297.78 135.787 298.499 136.506 298.499 137.393C298.499 138.28 297.78 138.999 296.893 138.999Z" fill="#6667AA"/>
<path id="Vector_110" d="M317.668 204.298V199.517C314.287 197.76 309.714 198.368 304.351 203.698C288.835 219.122 275.41 211.727 263.525 196.211C260.21 191.889 256.421 188.757 252.473 186.5V204.298C252.473 211.31 258.153 216.991 265.165 216.991H304.975C311.988 216.991 317.668 211.311 317.668 204.298Z" fill="url(#paint2_linear_1_7)"/>
<path id="Vector_111" d="M282.272 145.192H265.166C258.153 145.192 252.474 150.88 252.474 157.893V162.44C255.822 159.975 260.586 158.259 267.373 158.292C278.266 158.342 282.947 152.079 282.272 145.192Z" fill="url(#paint3_linear_1_7)"/>
<path id="Vector_112" d="M317.663 157.893V175.833C307.303 175.403 301.013 166.863 305.303 155.763C306.673 152.233 306.873 148.703 306.273 145.273C307.143 145.353 307.983 145.523 308.783 145.773C313.933 147.393 317.663 152.203 317.663 157.893Z" fill="url(#paint4_linear_1_7)"/>
</g>
<g id="Group_72">
<g id="Group_73">
<g id="Group_74">
<path id="Vector_113" d="M285.106 192.304C278.341 192.304 272.836 186.8 272.836 180.034C272.836 179.426 273.329 178.933 273.937 178.933C274.545 178.933 275.038 179.426 275.038 180.034C275.038 185.586 279.555 190.102 285.106 190.102C290.658 190.102 295.175 185.586 295.175 180.034C295.175 179.426 295.668 178.933 296.276 178.933C296.884 178.933 297.377 179.426 297.377 180.034C297.376 186.8 291.871 192.304 285.106 192.304Z" fill="white"/>
</g>
<g id="Group_75">
<path id="Vector_114" d="M285.106 203.064C284.498 203.064 284.005 202.571 284.005 201.963V191.203C284.005 190.595 284.498 190.102 285.106 190.102C285.714 190.102 286.207 190.595 286.207 191.203V201.963C286.206 202.571 285.714 203.064 285.106 203.064Z" fill="white"/>
</g>
<g id="Group_76">
<path id="Vector_115" d="M288.587 176.92V175.571H291.848V173.447H288.587V172.098H291.848V169.974H288.587V168.625H291.848V167.123C291.848 163.4 288.83 160.382 285.107 160.382C281.384 160.382 278.366 163.4 278.366 167.123V168.625H281.624V169.974H278.366V172.098H281.624V173.447H278.366V175.571H281.624V176.92H278.366V178.878C278.366 182.601 281.384 185.619 285.107 185.619C288.83 185.619 291.848 182.601 291.848 178.878V176.92H288.587Z" fill="white"/>
</g>
<g id="Group_77">
<path id="Vector_116" d="M293.623 202.332C293.623 203.758 289.81 204.915 285.106 204.915C280.402 204.915 276.589 203.759 276.589 202.332C276.589 200.906 280.402 199.75 285.106 199.75C289.81 199.75 293.623 200.906 293.623 202.332Z" fill="white"/>
</g>
</g>
<g id="Group_78">
<g id="Group_79">
<path id="Vector_117" d="M273.5 174.891C273.271 174.891 273.085 174.705 273.085 174.476V169.469C273.085 169.24 273.271 169.054 273.5 169.054C273.73 169.054 273.915 169.24 273.915 169.469V174.476C273.915 174.706 273.73 174.891 273.5 174.891Z" fill="white"/>
</g>
<g id="Group_80">
<path id="Vector_118" d="M266.204 174.891C265.975 174.891 265.789 174.705 265.789 174.476V169.469C265.789 169.24 265.974 169.054 266.204 169.054C266.434 169.054 266.619 169.24 266.619 169.469V174.476C266.619 174.706 266.433 174.891 266.204 174.891Z" fill="white"/>
</g>
<g id="Group_81">
<path id="Vector_119" d="M269.852 179.055C269.623 179.055 269.437 178.869 269.437 178.64V165.305C269.437 165.075 269.623 164.89 269.852 164.89C270.081 164.89 270.267 165.076 270.267 165.305V178.64C270.267 178.87 270.081 179.055 269.852 179.055Z" fill="white"/>
</g>
</g>
<g id="Group_82">
<g id="Group_83">
<path id="Vector_120" d="M296.64 174.891C296.411 174.891 296.225 174.705 296.225 174.476V169.469C296.225 169.24 296.411 169.054 296.64 169.054C296.869 169.054 297.055 169.24 297.055 169.469V174.476C297.055 174.706 296.869 174.891 296.64 174.891Z" fill="white"/>
</g>
<g id="Group_84">
<path id="Vector_121" d="M303.936 174.891C303.707 174.891 303.521 174.705 303.521 174.476V169.469C303.521 169.24 303.707 169.054 303.936 169.054C304.165 169.054 304.351 169.24 304.351 169.469V174.476C304.352 174.706 304.166 174.891 303.936 174.891Z" fill="white"/>
</g>
<g id="Group_85">
<path id="Vector_122" d="M300.288 179.055C300.059 179.055 299.873 178.869 299.873 178.64V165.305C299.873 165.075 300.059 164.89 300.288 164.89C300.517 164.89 300.703 165.076 300.703 165.305V178.64C300.703 178.87 300.518 179.055 300.288 179.055Z" fill="white"/>
</g>
</g>
</g>
</g>
</g>
</g>
</g>
<g id="_x31_">
<g id="music-note-4">
<path id="Vector_123" d="M144.943 84.4446C144.981 87.3793 142.505 89.8081 139.414 89.8681C136.321 89.9293 133.784 87.5994 133.747 84.6646C133.709 81.7299 136.185 79.3011 139.277 79.2411C142.369 79.1811 144.906 81.5098 144.943 84.4446Z" fill="#FF8E64"/>
<path id="Vector_124" d="M164.729 90.5753C164.768 93.51 162.291 95.9376 159.2 95.9988C156.108 96.06 153.57 93.7301 153.533 90.7954C153.495 87.8606 155.971 85.4319 159.063 85.3718C162.154 85.3107 164.691 87.6406 164.729 90.5753Z" fill="#FF8E64"/>
<g id="Group_86">
<path id="Vector_125" d="M153.014 56.3934L142.554 84.6287L144.75 85.8741L155.21 57.6389L153.014 56.3934Z" fill="#FF8E64"/>
</g>
<g id="Group_87">
<path id="Vector_126" d="M172.532 63.2724L162.069 91.5077L164.265 92.7534L174.727 64.5182L172.532 63.2724Z" fill="#FF8E64"/>
</g>
<path id="Vector_127" d="M176 61.0584L153.798 54.297L150.46 63.3083L172.661 70.0686L176 61.0584Z" fill="#FF8E64"/>
</g>
<g id="music-note-3">
<path id="Vector_128" d="M66.466 290.25C66.1484 294.102 70.0356 297.554 75.1496 297.961C80.2621 298.367 84.6642 295.574 84.9818 291.722C85.2995 287.87 81.4123 284.418 76.2983 284.012C71.1858 283.605 66.7837 286.398 66.466 290.25Z" fill="#FF8E64"/>
<g id="Group_88">
<path id="Vector_129" d="M66.6518 292.146L70.3944 290.74L60.019 264.074C59.7297 263.33 58.6561 263.04 57.6237 263.429C56.5898 263.817 55.9871 264.735 56.2764 265.479L66.6518 292.146Z" fill="#FF8E64"/>
</g>
</g>
<g id="music-note-2">
<g id="Group_89">
<path id="Vector_130" d="M378.883 64.548C379.546 68.459 375.949 72.331 370.849 73.195C365.749 74.059 361.078 71.589 360.415 67.677C359.752 63.765 363.349 59.894 368.449 59.03C373.548 58.166 378.22 60.636 378.883 64.548Z" fill="#E0CDF2"/>
<g id="Group_90">
<path id="Vector_131" d="M378.866 66.503L374.98 65.394L383.022 37.213C383.246 36.426 384.298 36.037 385.371 36.343C386.444 36.649 387.132 37.535 386.907 38.322L378.866 66.503Z" fill="#E0CDF2"/>
</g>
</g>
</g>
<g id="music-note-1">
<path id="Vector_132" d="M404.702 185.799C406.727 187.199 406.476 190.009 404.142 192.073C401.806 194.139 398.272 194.677 396.246 193.276C394.221 191.876 394.472 189.066 396.806 187.002C399.142 184.939 402.677 184.399 404.702 185.799Z" fill="white"/>
<path id="Vector_133" d="M424.08 175.754C426.105 177.154 425.854 179.963 423.52 182.028C421.184 184.093 417.651 184.632 415.624 183.23C413.599 181.83 413.85 179.02 416.185 176.956C418.52 174.892 422.056 174.353 424.08 175.754Z" fill="white"/>
<g id="Group_91">
<path id="Vector_134" d="M394.374 166.014L391.838 166.855L403.006 187.454L405.542 186.613L394.374 166.014Z" fill="white"/>
</g>
<g id="Group_92">
<path id="Vector_135" d="M414.04 156.516L411.504 157.357L422.672 177.956L425.208 177.115L414.04 156.516Z" fill="white"/>
</g>
<path id="Vector_136" d="M412.665 154L391 165.33L394.564 171.903L416.227 160.573L412.665 154Z" fill="white"/>
</g>
<g id="Group_93">
<path id="Vector_137" d="M116.512 209.334C121.505 204.229 124.388 197.714 124.088 190.727C123.428 175.387 107.702 163.605 88.962 164.411C70.223 165.217 55.567 178.307 56.227 193.647C56.887 208.987 72.613 220.769 91.352 219.963C97.483 219.699 103.171 218.114 108.035 215.572C113.468 219.024 120.675 223.586 120.675 223.586L116.512 209.334Z" fill="#E0CDF2"/>
<g id="Group_94">
<g id="purple-point-3">
<path id="Vector_138" d="M104.825 192.806C104.901 194.571 103.532 196.063 101.767 196.139C100.002 196.215 98.51 194.846 98.434 193.081C98.358 191.316 99.727 189.824 101.492 189.748C103.256 189.671 104.749 191.041 104.825 192.806Z" fill="#6A5087"/>
</g>
<g id="purple-point-2">
<path id="Vector_139" d="M93.407 193.297C93.483 195.062 92.114 196.554 90.349 196.63C88.584 196.706 87.092 195.337 87.016 193.572C86.94 191.807 88.309 190.314 90.074 190.239C91.839 190.163 93.331 191.532 93.407 193.297Z" fill="#6A5087"/>
</g>
<g id="purple-point-1">
<path id="Vector_140" d="M81.99 193.788C82.066 195.553 80.697 197.046 78.932 197.121C77.167 197.197 75.675 195.828 75.599 194.063C75.523 192.298 76.892 190.806 78.657 190.73C80.422 190.654 81.914 192.023 81.99 193.788Z" fill="#6A5087"/>
</g>
</g>
</g>
<g id="Group_95">
<path id="Vector_141" d="M433.03 111.108C427.992 106.381 424.933 100.203 424.933 93.437C424.933 78.582 439.644 66.539 457.791 66.539C475.938 66.539 490.649 78.582 490.649 93.437C490.649 108.292 475.938 120.335 457.791 120.335C451.854 120.335 446.289 119.039 441.482 116.784C436.374 120.347 429.598 125.056 429.598 125.056L433.03 111.108Z" fill="#FFD980"/>
<g id="Group_96">
<g id="white-point-3">
<path id="Vector_142" d="M468.26 97.209C469.878 97.209 471.19 95.8972 471.19 94.279C471.19 92.6608 469.878 91.349 468.26 91.349C466.642 91.349 465.33 92.6608 465.33 94.279C465.33 95.8972 466.642 97.209 468.26 97.209Z" fill="white"/>
</g>
<g id="white-point-2">
<path id="Vector_143" d="M457.792 97.209C459.41 97.209 460.722 95.8972 460.722 94.279C460.722 92.6608 459.41 91.349 457.792 91.349C456.174 91.349 454.862 92.6608 454.862 94.279C454.862 95.8972 456.174 97.209 457.792 97.209Z" fill="white"/>
</g>
<g id="white-point-1">
<path id="Vector_144" d="M447.323 97.209C448.941 97.209 450.253 95.8972 450.253 94.279C450.253 92.6608 448.941 91.349 447.323 91.349C445.705 91.349 444.393 92.6608 444.393 94.279C444.393 95.8972 445.705 97.209 447.323 97.209Z" fill="white"/>
</g>
</g>
</g>
</g>
</g>
<defs>
<linearGradient id="paint0_linear_1_7" x1="284.432" y1="137.902" x2="285.858" y2="273.939" gradientUnits="userSpaceOnUse">
<stop stop-color="white"/>
<stop offset="1" stop-color="#FBF8F1"/>
</linearGradient>
<linearGradient id="paint1_linear_1_7" x1="285.068" y1="139.169" x2="285.068" y2="234.562" gradientUnits="userSpaceOnUse">
<stop stop-color="#D6BBF0"/>
<stop offset="1" stop-color="#7743B5"/>
</linearGradient>
<linearGradient id="paint2_linear_1_7" x1="285.071" y1="186.946" x2="285.071" y2="131.632" gradientUnits="userSpaceOnUse">
<stop stop-color="#482A6B"/>
<stop offset="1" stop-color="#7743B5"/>
</linearGradient>
<linearGradient id="paint3_linear_1_7" x1="267.405" y1="186.946" x2="267.405" y2="131.632" gradientUnits="userSpaceOnUse">
<stop stop-color="#482A6B"/>
<stop offset="1" stop-color="#7743B5"/>
</linearGradient>
<linearGradient id="paint4_linear_1_7" x1="310.801" y1="186.946" x2="310.801" y2="131.632" gradientUnits="userSpaceOnUse">
<stop stop-color="#482A6B"/>
<stop offset="1" stop-color="#7743B5"/>
</linearGradient>
<clipPath id="clip0_1_7">
<rect width="600" height="400" fill="white"/>
</clipPath>
</defs>
</svg>
