 <svg height="100vh" width="100vw">
        <defs>
          <clipPath id="svgPath">
            <polygon
              class="star"
              points="10,0 12,7 20,7 13.5,11 16,18 10,14 4,18 6.5,11 0,7 8,7"
              transform="translate(100,400) scale(0)" />
            <polygon
              class="star"
              points="10,0 12,7 20,7 13.5,11 16,18 10,14 4,18 6.5,11 0,7 8,7"
              transform="translate(200,150) scale(0)" />
            <polygon
              class="star"
              points="10,0 12,7 20,7 13.5,11 16,18 10,14 4,18 6.5,11 0,7 8,7"
              transform="translate(300,250) scale(0)" />
            <polygon
              class="star"
              points="10,0 12,7 20,7 13.5,11 16,18 10,14 4,18 6.5,11 0,7 8,7"
              transform="translate(300,600) scale(0)" />
            <polygon
              class="star"
              points="10,0 12,7 20,7 13.5,11 16,18 10,14 4,18 6.5,11 0,7 8,7"
              transform="translate(400,500) scale(0)" />
            <polygon
              class="star"
              points="10,0 12,7 20,7 13.5,11 16,18 10,14 4,18 6.5,11 0,7 8,7"
              transform="translate(500,100) scale(0)" />
            <polygon
              class="star"
              points="10,0 12,7 20,7 13.5,11 16,18 10,14 4,18 6.5,11 0,7 8,7"
              transform="translate(600,300) scale(0)" />
            <polygon
              class="star"
              points="10,0 12,7 20,7 13.5,11 16,18 10,14 4,18 6.5,11 0,7 8,7"
              transform="translate(700,400) scale(0)" />
            <polygon
              class="star"
              points="10,0 12,7 20,7 13.5,11 16,18 10,14 4,18 6.5,11 0,7 8,7"
              transform="translate(700,600) scale(0)" />
            <polygon
              class="star"
              points="10,0 12,7 20,7 13.5,11 16,18 10,14 4,18 6.5,11 0,7 8,7"
              transform="translate(800,100) scale(0)" />
            <polygon
              class="star"
              points="10,0 12,7 20,7 13.5,11 16,18 10,14 4,18 6.5,11 0,7 8,7"
              transform="translate(900,200) scale(0)" />
            <polygon
              class="star"
              points="10,0 12,7 20,7 13.5,11 16,18 10,14 4,18 6.5,11 0,7 8,7"
              transform="translate(1000,500) scale(0)" />
            <polygon
              class="star"
              points="10,0 12,7 20,7 13.5,11 16,18 10,14 4,18 6.5,11 0,7 8,7"
              transform="translate(1200,200) scale(0)" />
            <polygon
              class="star"
              points="10,0 12,7 20,7 13.5,11 16,18 10,14 4,18 6.5,11 0,7 8,7"
              transform="translate(1300,400) scale(0)" />
            <polygon
              class="star"
              points="10,0 12,7 20,7 13.5,11 16,18 10,14 4,18 6.5,11 0,7 8,7"
              transform="translate(1400,100) scale(0)" />
            <polygon
              class="star"
              points="10,0 12,7 20,7 13.5,11 16,18 10,14 4,18 6.5,11 0,7 8,7"
              transform="translate(1400,600) scale(0)" />
          </clipPath>
        </defs>
      </svg>